<?xml version="1.0" standalone="no"?>
<!DOCTYPE svg PUBLIC "-//W3C//DTD SVG 20010904//EN"
 "http://www.w3.org/TR/2001/REC-SVG-20010904/DTD/svg10.dtd">
<svg id="svg" version="1.1" width="400" height="450" xmlns="http://www.w3.org/2000/svg" xmlns:xlink="http://www.w3.org/1999/xlink" style="display: block;">
<g id="svgg">
<path id="path0" d="M179.665 68.934 C 168.876 75.212,157.356 81.901,154.067 83.798 C 150.778 85.695,145.610 88.679,142.584 90.430 C 139.557 92.181,133.959 95.411,130.144 97.608 C 126.328 99.805,120.730 103.034,117.703 104.785 C 114.677 106.535,109.079 109.765,105.263 111.962 C 101.447 114.159,95.849 117.388,92.823 119.139 C 89.797 120.889,84.199 124.119,80.383 126.316 C 76.567 128.513,70.969 131.745,67.943 133.499 C 64.916 135.253,57.865 139.331,52.273 142.561 L 42.105 148.434 42.105 239.250 L 42.105 330.065 47.249 333.037 C 50.078 334.671,55.837 337.993,60.048 340.419 C 64.258 342.845,69.856 346.079,72.488 347.605 C 75.120 349.131,80.825 352.422,85.167 354.918 C 92.903 359.364,100.251 363.607,109.809 369.146 C 112.440 370.671,117.339 373.500,120.694 375.433 C 124.049 377.366,129.539 380.529,132.895 382.462 C 136.250 384.394,141.148 387.226,143.780 388.755 C 146.411 390.283,152.010 393.514,156.220 395.936 C 160.431 398.357,166.029 401.584,168.660 403.108 C 171.292 404.631,176.890 407.867,181.100 410.299 C 185.311 412.731,191.206 416.145,194.201 417.887 C 197.195 419.628,199.807 421.053,200.004 421.053 C 200.343 421.053,207.143 417.188,215.470 412.264 C 217.531 411.045,219.290 410.048,219.378 410.048 C 219.466 410.048,221.225 409.050,223.286 407.831 C 228.596 404.691,241.906 397.007,244.741 395.445 C 246.055 394.722,247.344 393.972,247.608 393.779 C 247.871 393.586,251.746 391.323,256.220 388.751 C 264.329 384.089,272.132 379.588,280.981 374.469 C 283.547 372.985,287.745 370.556,290.311 369.072 C 303.982 361.163,307.609 359.070,314.833 354.918 C 319.175 352.422,324.880 349.131,327.512 347.605 C 330.144 346.079,335.742 342.849,339.952 340.427 C 344.163 338.005,349.868 334.716,352.632 333.118 L 357.656 330.212 357.656 239.234 L 357.656 148.257 352.643 145.370 C 349.887 143.782,344.073 140.429,339.725 137.920 C 328.552 131.471,320.590 126.877,313.397 122.727 C 309.976 120.754,304.324 117.493,300.837 115.481 C 297.350 113.469,291.699 110.208,288.278 108.235 C 261.693 92.898,254.019 88.465,249.761 85.991 C 244.779 83.096,243.331 82.262,238.756 79.658 C 236.782 78.535,227.323 73.071,217.736 67.516 C 208.149 61.961,200.075 57.439,199.793 57.468 C 199.512 57.496,190.455 62.656,179.665 68.934 M244.498 155.864 L 244.498 196.417 227.392 209.289 C 217.984 216.369,192.716 235.369,171.241 251.511 L 132.194 280.861 105.332 280.861 L 78.469 280.861 78.469 241.388 L 78.469 201.914 121.770 201.914 L 165.072 201.914 165.072 158.612 L 165.072 115.311 204.785 115.311 L 244.498 115.311 244.498 155.864 M330.622 227.074 L 330.622 252.235 328.110 250.408 C 326.728 249.404,323.122 246.736,320.096 244.480 C 317.069 242.225,309.749 236.785,303.828 232.392 C 297.907 227.999,288.181 220.779,282.215 216.348 C 276.248 211.917,269.520 206.941,267.262 205.291 C 265.005 203.640,263.158 202.205,263.158 202.102 C 263.158 201.998,278.337 201.914,296.890 201.914 L 330.622 201.914 330.622 227.074 M252.645 203.698 C 253.295 204.152,254.151 204.791,254.545 205.116 C 255.091 205.566,307.022 244.396,327.610 259.748 L 330.578 261.962 330.600 271.411 L 330.622 280.861 287.562 280.861 L 244.503 280.861 244.381 324.043 L 244.258 367.225 204.665 367.347 L 165.072 367.470 165.072 324.175 L 165.072 280.881 155.250 280.751 L 145.428 280.622 152.259 275.553 C 158.870 270.648,163.198 267.446,186.124 250.501 C 198.634 241.255,207.634 234.606,216.272 228.230 C 222.494 223.636,232.735 216.061,244.213 207.561 C 251.107 202.456,250.963 202.522,252.645 203.698 M254.506 234.489 C 252.990 234.657,250.602 235.412,248.980 236.236 C 246.197 237.650,246.094 237.666,244.952 236.841 C 241.455 234.315,233.765 233.645,228.949 235.447 C 217.200 239.843,213.873 256.187,222.931 265.010 C 228.553 270.486,236.559 271.696,243.830 268.168 L 246.273 266.983 249.572 268.518 C 254.378 270.754,260.054 270.769,264.593 268.559 C 283.271 259.465,275.198 232.196,254.506 234.489 M240.789 240.067 C 241.776 240.456,242.584 240.836,242.584 240.912 C 242.584 240.988,241.887 242.418,241.036 244.090 C 238.718 248.644,238.719 255.688,241.038 260.263 C 242.802 263.742,242.793 263.762,238.995 264.942 C 234.652 266.290,229.738 264.991,226.328 261.593 C 216.041 251.342,227.210 234.716,240.789 240.067 M262.786 240.260 C 277.272 247.533,268.825 269.311,253.272 264.789 C 250.171 263.888,249.868 263.364,251.169 261.158 C 254.332 255.797,254.237 247.761,250.950 242.746 C 249.925 241.181,250.036 240.903,252.033 240.043 C 255.401 238.593,259.636 238.679,262.786 240.260 M247.522 246.537 C 249.236 250.150,248.955 256.135,246.948 258.782 L 246.093 259.908 245.056 257.497 C 242.714 252.052,245.102 241.438,247.522 246.537 " stroke="none" fill="#fefefe" fill-rule="evenodd"></path>
<path id="path1" d="M253.719 252.153 C 253.719 253.337,253.812 253.822,253.926 253.230 C 254.040 252.638,254.040 251.669,253.926 251.077 C 253.812 250.484,253.719 250.969,253.719 252.153 M234.569 270.665 C 235.030 270.785,235.783 270.785,236.244 270.665 C 236.705 270.544,236.328 270.446,235.407 270.446 C 234.486 270.446,234.109 270.544,234.569 270.665 M256.100 270.665 C 256.561 270.785,257.315 270.785,257.775 270.665 C 258.236 270.544,257.859 270.446,256.938 270.446 C 256.017 270.446,255.640 270.544,256.100 270.665 M185.048 367.344 C 195.903 367.416,213.666 367.416,224.522 367.344 C 235.377 367.273,226.495 367.214,204.785 367.214 C 183.074 367.214,174.193 367.273,185.048 367.344 " stroke="none" fill="#5c995f" fill-rule="evenodd"></path>
<path id="path2" d="M198.872 37.560 C 198.477 37.955,197.816 38.278,197.403 38.278 C 196.989 38.278,196.651 38.493,196.651 38.756 C 196.651 39.019,196.357 39.234,195.998 39.234 C 195.638 39.234,194.734 39.715,193.988 40.302 C 193.241 40.889,191.651 41.856,190.454 42.451 C 189.257 43.047,187.416 44.080,186.364 44.747 C 185.311 45.415,183.858 46.191,183.134 46.472 C 182.410 46.753,181.818 47.178,181.818 47.415 C 181.818 47.653,181.495 47.847,181.100 47.847 C 180.706 47.847,180.383 48.062,180.383 48.325 C 180.383 48.589,179.968 48.804,179.460 48.804 C 178.952 48.804,178.214 49.127,177.820 49.522 C 177.425 49.916,176.871 50.239,176.589 50.239 C 176.307 50.239,176.077 50.455,176.077 50.718 C 176.077 50.981,175.754 51.196,175.359 51.196 C 174.964 51.196,174.641 51.447,174.641 51.754 C 174.641 52.061,174.500 52.172,174.329 52.000 C 173.996 51.667,170.813 53.435,170.223 54.281 C 170.029 54.558,169.868 54.586,169.864 54.342 C 169.860 54.099,169.372 54.317,168.780 54.826 C 168.188 55.335,166.842 56.180,165.789 56.704 C 164.737 57.227,163.466 58.025,162.966 58.476 C 162.465 58.928,161.873 59.184,161.650 59.046 C 161.427 58.908,161.244 58.983,161.244 59.213 C 161.244 59.442,160.490 59.926,159.569 60.287 C 158.648 60.648,157.895 61.132,157.895 61.362 C 157.895 61.591,157.679 61.646,157.416 61.483 C 157.153 61.321,156.938 61.416,156.938 61.694 C 156.938 61.973,156.633 62.201,156.260 62.201 C 155.887 62.201,155.510 62.362,155.423 62.560 C 155.335 62.757,154.294 63.402,153.110 63.993 C 150.924 65.083,149.237 66.070,148.804 66.512 C 148.672 66.646,147.703 67.184,146.651 67.708 C 145.598 68.232,144.665 68.822,144.577 69.019 C 144.490 69.217,144.205 69.378,143.945 69.378 C 143.685 69.378,143.149 69.701,142.755 70.096 C 142.360 70.490,141.622 70.813,141.114 70.813 C 140.607 70.813,140.191 71.029,140.191 71.292 C 140.191 71.555,139.967 71.770,139.693 71.770 C 139.419 71.770,138.740 72.194,138.185 72.711 C 137.630 73.228,136.993 73.538,136.770 73.400 C 136.546 73.262,136.364 73.377,136.364 73.656 C 136.364 73.935,135.933 74.163,135.407 74.163 C 134.880 74.163,134.450 74.378,134.450 74.641 C 134.450 74.904,134.127 75.120,133.732 75.120 C 133.337 75.120,133.014 75.320,133.014 75.566 C 133.014 75.811,132.530 76.165,131.938 76.353 C 131.346 76.540,129.494 77.523,127.822 78.538 C 126.150 79.553,124.589 80.383,124.353 80.383 C 124.117 80.383,123.923 80.550,123.923 80.754 C 123.923 80.958,122.957 81.550,121.775 82.070 C 120.593 82.589,119.624 83.176,119.622 83.373 C 119.619 83.571,119.312 83.732,118.939 83.732 C 118.567 83.732,118.190 83.894,118.102 84.091 C 118.014 84.288,117.081 84.878,116.029 85.402 C 114.976 85.926,114.007 86.464,113.875 86.598 C 113.743 86.732,112.882 87.252,111.961 87.754 C 111.041 88.255,109.406 89.146,108.329 89.734 C 107.251 90.322,105.479 91.365,104.391 92.052 C 103.302 92.739,102.290 93.301,102.143 93.301 C 101.995 93.301,101.420 93.725,100.864 94.242 C 100.309 94.759,99.672 95.069,99.449 94.931 C 99.226 94.793,99.043 94.868,99.043 95.098 C 99.043 95.327,98.289 95.811,97.368 96.172 C 96.447 96.534,95.694 97.017,95.694 97.247 C 95.694 97.476,95.478 97.531,95.215 97.368 C 94.952 97.206,94.737 97.301,94.737 97.579 C 94.737 97.858,94.432 98.086,94.059 98.086 C 93.686 98.086,93.309 98.248,93.222 98.445 C 93.134 98.642,91.824 99.442,90.311 100.222 C 88.798 101.003,87.560 101.823,87.560 102.045 C 87.560 102.267,87.344 102.316,87.081 102.153 C 86.818 101.990,86.603 102.060,86.603 102.308 C 86.603 102.556,86.226 102.878,85.766 103.024 C 84.760 103.341,81.200 105.371,80.856 105.823 C 80.722 106.000,80.022 106.292,79.301 106.473 C 78.580 106.654,77.990 106.994,77.990 107.229 C 77.990 107.464,77.667 107.656,77.273 107.656 C 76.878 107.656,76.555 107.871,76.555 108.134 C 76.555 108.397,76.232 108.612,75.837 108.612 C 75.443 108.612,75.120 108.864,75.120 109.171 C 75.120 109.478,74.982 109.592,74.815 109.424 C 74.647 109.256,73.947 109.508,73.260 109.984 C 72.572 110.460,71.687 110.994,71.292 111.171 C 70.897 111.349,69.928 111.907,69.139 112.413 C 68.349 112.918,66.912 113.765,65.944 114.295 C 62.782 116.028,62.007 116.499,61.377 117.076 C 61.035 117.389,60.004 117.917,59.086 118.249 C 58.168 118.581,57.416 119.025,57.416 119.235 C 57.416 119.445,57.093 119.617,56.699 119.617 C 56.304 119.617,55.981 119.800,55.981 120.024 C 55.981 120.247,55.012 120.830,53.828 121.318 C 52.644 121.806,51.675 122.354,51.675 122.534 C 51.675 122.715,51.136 122.998,50.478 123.163 C 49.821 123.328,49.282 123.674,49.282 123.933 C 49.282 124.191,49.063 124.402,48.795 124.402 C 48.527 124.402,46.964 125.209,45.320 126.196 C 43.677 127.183,41.690 128.313,40.903 128.708 C 40.117 129.103,39.189 129.695,38.841 130.024 C 38.494 130.353,37.902 130.622,37.526 130.622 C 37.150 130.622,36.842 130.820,36.842 131.061 C 36.842 131.302,35.873 131.870,34.689 132.322 C 33.505 132.774,32.536 133.330,32.536 133.558 C 32.536 133.785,32.231 133.971,31.858 133.971 C 31.485 133.971,31.108 134.133,31.021 134.330 C 30.933 134.528,30.108 135.064,29.187 135.523 C 26.970 136.628,25.676 137.454,25.247 138.038 C 24.787 138.664,24.787 339.805,25.247 340.431 C 25.676 341.015,26.970 341.841,29.187 342.946 C 30.108 343.404,30.933 343.941,31.021 344.139 C 31.108 344.336,31.485 344.498,31.858 344.498 C 32.231 344.498,32.536 344.684,32.536 344.911 C 32.536 345.138,33.505 345.695,34.689 346.147 C 35.873 346.599,36.842 347.167,36.842 347.408 C 36.842 347.649,37.150 347.847,37.526 347.847 C 37.902 347.847,38.494 348.116,38.841 348.445 C 39.189 348.774,40.120 349.355,40.909 349.736 C 41.699 350.118,42.990 350.871,43.780 351.411 C 44.569 351.951,46.077 352.822,47.129 353.348 C 48.182 353.874,49.328 354.574,49.675 354.903 C 50.023 355.233,50.615 355.502,50.991 355.502 C 51.367 355.502,51.675 355.674,51.675 355.883 C 51.675 356.092,52.644 356.663,53.828 357.151 C 55.012 357.639,55.981 358.222,55.981 358.445 C 55.981 358.669,56.304 358.852,56.699 358.852 C 57.093 358.852,57.416 359.050,57.416 359.292 C 57.416 359.534,58.033 359.868,58.787 360.034 C 59.541 360.199,60.575 360.701,61.084 361.148 C 62.103 362.043,63.176 362.692,66.183 364.235 C 67.283 364.798,68.289 365.394,68.421 365.559 C 68.553 365.724,68.983 366.013,69.378 366.202 C 69.773 366.390,70.526 366.810,71.053 367.135 C 73.087 368.391,74.416 369.106,74.745 369.122 C 74.934 369.131,75.529 369.516,76.067 369.976 C 76.604 370.437,77.257 370.813,77.517 370.813 C 77.778 370.813,77.990 371.012,77.990 371.254 C 77.990 371.496,78.607 371.830,79.361 371.995 C 80.115 372.161,81.138 372.663,81.634 373.111 C 82.130 373.559,83.448 374.356,84.564 374.882 C 85.679 375.407,86.595 375.945,86.598 376.077 C 86.601 376.208,88.057 377.069,89.833 377.990 C 91.609 378.911,93.134 379.827,93.222 380.024 C 93.309 380.221,93.686 380.383,94.059 380.383 C 94.432 380.383,94.737 380.611,94.737 380.889 C 94.737 381.168,94.952 381.263,95.215 381.100 C 95.478 380.938,95.694 380.993,95.694 381.222 C 95.694 381.452,96.447 381.935,97.368 382.297 C 98.289 382.658,99.043 383.129,99.043 383.343 C 99.043 383.557,99.351 383.732,99.727 383.732 C 100.103 383.732,100.695 384.009,101.042 384.348 C 101.390 384.687,102.536 385.360,103.589 385.843 C 104.641 386.326,105.987 387.163,106.579 387.703 C 107.171 388.242,107.656 388.533,107.656 388.348 C 107.656 388.164,108.783 388.772,110.161 389.700 C 111.539 390.628,112.939 391.388,113.271 391.388 C 113.604 391.388,113.876 391.603,113.876 391.866 C 113.876 392.129,114.306 392.344,114.833 392.344 C 115.359 392.344,115.789 392.556,115.789 392.814 C 115.789 393.072,116.328 393.418,116.986 393.583 C 117.644 393.749,118.182 394.076,118.182 394.310 C 118.182 394.545,118.487 394.737,118.860 394.737 C 119.232 394.737,119.609 394.898,119.697 395.096 C 119.785 395.293,120.718 395.883,121.770 396.407 C 122.823 396.931,123.792 397.469,123.923 397.603 C 124.246 397.932,125.939 398.897,129.665 400.877 C 131.376 401.786,132.847 402.714,132.935 402.940 C 133.022 403.165,133.399 403.349,133.772 403.349 C 134.145 403.349,134.450 403.565,134.450 403.828 C 134.450 404.091,134.880 404.306,135.407 404.306 C 135.933 404.306,136.364 404.534,136.364 404.813 C 136.364 405.092,136.546 405.207,136.770 405.069 C 136.993 404.931,137.630 405.241,138.185 405.758 C 138.740 406.275,139.419 406.699,139.693 406.699 C 139.967 406.699,140.191 406.914,140.191 407.177 C 140.191 407.440,140.607 407.656,141.114 407.656 C 141.622 407.656,142.360 407.978,142.755 408.373 C 143.149 408.768,143.703 409.091,143.985 409.091 C 144.267 409.091,144.500 409.252,144.502 409.450 C 144.505 409.647,145.474 410.234,146.655 410.753 C 147.837 411.273,148.804 411.865,148.804 412.069 C 148.804 412.273,149.111 412.440,149.487 412.440 C 149.863 412.440,150.503 412.773,150.910 413.179 C 151.316 413.585,152.595 414.336,153.752 414.848 C 154.908 415.360,156.123 416.101,156.450 416.496 C 156.778 416.891,157.237 417.096,157.470 416.952 C 157.704 416.808,157.895 416.878,157.895 417.107 C 157.895 417.337,158.648 417.820,159.569 418.182 C 160.490 418.543,161.244 419.027,161.244 419.256 C 161.244 419.486,161.427 419.561,161.650 419.423 C 161.873 419.285,162.467 419.541,162.968 419.993 C 163.470 420.444,164.849 421.330,166.031 421.961 C 167.214 422.592,168.505 423.363,168.900 423.674 C 170.460 424.904,174.054 426.744,174.339 426.459 C 174.505 426.292,174.641 426.407,174.641 426.715 C 174.641 427.022,174.865 427.273,175.140 427.273 C 175.414 427.273,176.114 427.718,176.695 428.263 C 177.276 428.807,178.343 429.372,179.067 429.518 C 179.791 429.665,180.383 429.973,180.383 430.203 C 180.383 430.434,180.706 430.622,181.100 430.622 C 181.495 430.622,181.818 430.816,181.818 431.054 C 181.818 431.291,182.410 431.715,183.134 431.997 C 183.858 432.278,185.311 433.051,186.364 433.714 C 187.416 434.377,189.246 435.406,190.431 436.001 C 191.615 436.595,193.010 437.466,193.531 437.937 C 194.052 438.408,194.967 438.916,195.565 439.066 C 196.162 439.216,196.651 439.530,196.651 439.765 C 196.651 439.999,196.989 440.191,197.403 440.191 C 197.816 440.191,198.477 440.514,198.872 440.909 C 199.775 441.811,200.225 441.811,201.128 440.909 C 201.523 440.514,202.184 440.191,202.597 440.191 C 203.011 440.191,203.349 439.999,203.349 439.765 C 203.349 439.530,203.838 439.216,204.435 439.066 C 205.033 438.916,205.948 438.400,206.469 437.920 C 206.990 437.440,208.385 436.566,209.569 435.979 C 210.754 435.391,212.584 434.372,213.636 433.715 C 214.689 433.057,216.040 432.311,216.639 432.056 C 217.238 431.802,218.194 431.159,218.763 430.629 C 219.332 430.099,220.172 429.665,220.630 429.665 C 221.088 429.665,221.786 429.342,222.180 428.947 C 222.575 428.553,223.111 428.230,223.371 428.230 C 223.631 428.230,223.915 428.068,224.003 427.871 C 224.091 427.673,225.233 426.974,226.541 426.316 C 227.849 425.658,229.654 424.622,230.551 424.015 C 231.449 423.407,233.178 422.370,234.393 421.711 C 235.609 421.051,237.464 419.978,238.517 419.326 C 239.569 418.674,240.807 418.017,241.268 417.866 C 241.728 417.715,242.105 417.389,242.105 417.141 C 242.105 416.893,242.288 416.803,242.511 416.941 C 242.735 417.079,243.327 416.820,243.827 416.365 C 244.327 415.910,245.652 415.131,246.770 414.634 C 247.889 414.137,248.804 413.552,248.804 413.334 C 248.804 413.115,249.342 412.802,250.000 412.637 C 250.658 412.472,251.198 412.198,251.201 412.029 C 251.203 411.861,252.172 411.297,253.354 410.778 C 254.536 410.258,255.502 409.666,255.502 409.462 C 255.502 409.258,255.733 409.091,256.015 409.091 C 256.297 409.091,256.851 408.768,257.245 408.373 C 257.640 407.978,258.378 407.656,258.886 407.656 C 259.393 407.656,259.809 407.440,259.809 407.177 C 259.809 406.914,260.033 406.699,260.307 406.699 C 260.581 406.699,261.260 406.275,261.815 405.758 C 262.370 405.241,263.007 404.931,263.230 405.069 C 263.454 405.207,263.636 405.092,263.636 404.813 C 263.636 404.534,264.067 404.306,264.593 404.306 C 265.120 404.306,265.550 404.091,265.550 403.828 C 265.550 403.565,265.873 403.349,266.268 403.349 C 266.663 403.349,266.986 403.121,266.986 402.843 C 266.986 402.564,267.183 402.458,267.423 402.606 C 267.664 402.755,267.933 402.700,268.021 402.485 C 268.110 402.269,269.366 401.449,270.813 400.663 C 274.215 398.816,275.779 397.906,276.077 397.603 C 276.208 397.469,277.177 396.931,278.230 396.407 C 279.282 395.883,280.215 395.293,280.303 395.096 C 280.391 394.898,280.768 394.737,281.140 394.737 C 281.513 394.737,281.818 394.545,281.818 394.310 C 281.818 394.076,282.356 393.749,283.014 393.583 C 283.672 393.418,284.211 393.072,284.211 392.814 C 284.211 392.556,284.623 392.344,285.128 392.344 C 285.632 392.344,286.116 392.183,286.204 391.986 C 286.365 391.624,288.227 390.543,291.477 388.924 C 292.447 388.441,293.382 387.816,293.555 387.536 C 293.728 387.256,294.980 386.497,296.337 385.849 C 298.920 384.615,300.553 383.684,300.957 383.215 C 301.089 383.063,301.896 382.633,302.751 382.261 C 303.606 381.889,304.306 381.409,304.306 381.195 C 304.306 380.980,304.522 380.938,304.785 381.100 C 305.048 381.263,305.263 381.168,305.263 380.889 C 305.263 380.611,305.568 380.383,305.941 380.383 C 306.314 380.383,306.691 380.221,306.778 380.024 C 306.866 379.827,308.391 378.911,310.167 377.990 C 311.943 377.069,313.399 376.208,313.402 376.077 C 313.405 375.945,314.321 375.407,315.436 374.882 C 316.552 374.356,317.870 373.559,318.366 373.111 C 318.862 372.663,319.885 372.161,320.639 371.995 C 321.393 371.830,322.010 371.496,322.010 371.254 C 322.010 371.012,322.234 370.813,322.508 370.813 C 322.782 370.813,323.461 370.390,324.016 369.873 C 324.571 369.356,325.208 369.046,325.431 369.184 C 325.655 369.322,325.837 369.257,325.837 369.041 C 325.837 368.824,326.645 368.272,327.632 367.814 C 329.668 366.869,331.223 365.944,331.589 365.461 C 331.726 365.280,332.372 364.895,333.024 364.607 C 333.677 364.318,335.287 363.450,336.603 362.678 C 337.919 361.906,339.749 360.891,340.670 360.422 C 341.591 359.953,342.416 359.408,342.504 359.211 C 342.592 359.013,342.969 358.852,343.341 358.852 C 343.714 358.852,344.019 358.669,344.019 358.445 C 344.019 358.222,344.988 357.639,346.172 357.151 C 347.356 356.663,348.325 356.092,348.325 355.883 C 348.325 355.674,348.633 355.502,349.009 355.502 C 349.385 355.502,350.025 355.170,350.431 354.764 C 350.838 354.357,352.136 353.597,353.316 353.075 C 354.497 352.553,355.596 351.910,355.759 351.646 C 355.923 351.382,357.062 350.697,358.291 350.124 C 359.521 349.551,360.811 348.804,361.159 348.465 C 361.506 348.125,362.098 347.847,362.474 347.847 C 362.850 347.847,363.158 347.666,363.158 347.445 C 363.158 347.022,365.294 345.868,366.498 345.640 C 366.888 345.567,367.283 345.280,367.376 345.002 C 367.468 344.725,367.849 344.498,368.222 344.498 C 368.594 344.498,368.900 344.282,368.900 344.019 C 368.900 343.756,369.207 343.541,369.583 343.541 C 369.959 343.541,370.605 343.202,371.018 342.789 C 371.432 342.375,371.770 342.193,371.770 342.384 C 371.770 342.576,372.147 342.408,372.608 342.013 C 373.068 341.617,373.822 341.160,374.282 340.997 C 375.165 340.684,375.633 139.235,374.753 138.038 C 374.324 137.454,373.030 136.628,370.813 135.523 C 369.892 135.064,369.067 134.528,368.979 134.330 C 368.892 134.133,368.515 133.971,368.142 133.971 C 367.769 133.971,367.464 133.788,367.464 133.565 C 367.464 133.341,366.495 132.759,365.311 132.271 C 364.127 131.782,363.158 131.212,363.158 131.002 C 363.158 130.793,362.850 130.622,362.474 130.622 C 362.098 130.622,361.506 130.353,361.159 130.024 C 360.811 129.695,359.880 129.103,359.091 128.708 C 358.301 128.313,356.003 126.987,353.983 125.761 C 351.964 124.535,350.187 123.656,350.036 123.808 C 349.885 123.959,349.761 123.832,349.761 123.525 C 349.761 123.218,349.438 122.967,349.043 122.967 C 348.648 122.967,348.325 122.795,348.325 122.586 C 348.325 122.377,347.356 121.806,346.172 121.318 C 344.988 120.830,344.019 120.247,344.019 120.024 C 344.019 119.800,343.714 119.617,343.341 119.617 C 342.969 119.617,342.592 119.456,342.504 119.258 C 342.416 119.061,341.591 118.512,340.670 118.039 C 337.416 116.366,333.741 114.240,330.365 112.078 C 329.848 111.748,329.103 111.336,328.708 111.163 C 328.313 110.990,327.428 110.460,326.740 109.984 C 326.053 109.508,325.353 109.256,325.185 109.424 C 325.018 109.592,324.880 109.478,324.880 109.171 C 324.880 108.864,324.557 108.612,324.163 108.612 C 323.768 108.612,323.445 108.397,323.445 108.134 C 323.445 107.871,323.122 107.656,322.727 107.656 C 322.333 107.656,322.010 107.457,322.010 107.215 C 322.010 106.973,321.364 106.633,320.574 106.459 C 319.785 106.286,319.139 105.971,319.139 105.759 C 319.139 105.548,318.762 105.256,318.301 105.110 C 317.365 104.815,313.768 102.788,313.397 102.347 C 313.266 102.191,311.758 101.330,310.048 100.433 C 308.337 99.537,306.866 98.642,306.778 98.445 C 306.691 98.248,306.314 98.086,305.941 98.086 C 305.568 98.086,305.263 97.858,305.263 97.579 C 305.263 97.301,305.048 97.206,304.785 97.368 C 304.522 97.531,304.306 97.479,304.306 97.254 C 304.306 97.028,303.553 96.570,302.632 96.237 C 301.711 95.904,300.957 95.418,300.957 95.156 C 300.957 94.894,300.770 94.796,300.542 94.937 C 300.314 95.077,299.743 94.767,299.272 94.247 C 298.801 93.727,298.224 93.301,297.989 93.301 C 297.754 93.301,296.442 92.588,295.073 91.716 C 293.704 90.844,291.938 89.800,291.148 89.396 C 288.627 88.105,286.372 86.850,286.125 86.598 C 285.993 86.464,285.024 85.926,283.971 85.402 C 282.919 84.878,281.986 84.288,281.898 84.091 C 281.810 83.894,281.433 83.732,281.061 83.732 C 280.688 83.732,280.381 83.571,280.378 83.373 C 280.376 83.176,279.407 82.589,278.225 82.070 C 277.043 81.550,276.077 80.958,276.077 80.754 C 276.077 80.550,275.883 80.383,275.647 80.383 C 275.411 80.383,273.850 79.553,272.178 78.538 C 270.506 77.523,268.654 76.540,268.062 76.353 C 267.470 76.165,266.986 75.811,266.986 75.566 C 266.986 75.320,266.663 75.120,266.268 75.120 C 265.873 75.120,265.550 74.904,265.550 74.641 C 265.550 74.378,265.120 74.163,264.593 74.163 C 264.067 74.163,263.636 73.935,263.636 73.656 C 263.636 73.377,263.454 73.262,263.230 73.400 C 263.007 73.538,262.370 73.228,261.815 72.711 C 261.260 72.194,260.581 71.770,260.307 71.770 C 260.033 71.770,259.809 71.572,259.809 71.330 C 259.809 71.088,259.192 70.754,258.438 70.588 C 257.684 70.423,256.650 69.921,256.141 69.474 C 255.129 68.585,254.084 67.951,251.041 66.380 C 249.942 65.813,248.772 65.084,248.440 64.761 C 248.108 64.438,247.086 63.901,246.167 63.569 C 245.249 63.237,244.498 62.794,244.498 62.583 C 244.498 62.373,244.175 62.201,243.780 62.201 C 243.385 62.201,243.062 61.973,243.062 61.694 C 243.062 61.416,242.847 61.321,242.584 61.483 C 242.321 61.646,242.105 61.576,242.105 61.328 C 242.105 61.080,241.728 60.754,241.268 60.603 C 240.807 60.451,239.569 59.795,238.517 59.143 C 237.464 58.491,235.526 57.381,234.211 56.676 C 232.895 55.972,231.495 55.133,231.100 54.812 C 229.973 53.896,225.880 51.630,225.622 51.779 C 225.495 51.853,224.950 51.537,224.412 51.077 C 223.874 50.616,223.313 50.239,223.166 50.239 C 223.019 50.239,222.575 49.916,222.180 49.522 C 221.786 49.127,221.048 48.804,220.540 48.804 C 220.032 48.804,219.617 48.589,219.617 48.325 C 219.617 48.062,219.294 47.847,218.900 47.847 C 218.505 47.847,218.182 47.653,218.182 47.415 C 218.182 47.178,217.590 46.750,216.866 46.465 C 215.357 45.869,212.443 44.272,211.693 43.628 C 211.413 43.389,210.337 42.793,209.300 42.306 C 208.264 41.818,207.007 41.042,206.506 40.582 C 206.006 40.122,205.414 39.859,205.191 39.997 C 204.967 40.135,204.785 40.020,204.785 39.741 C 204.785 39.462,204.462 39.234,204.067 39.234 C 203.672 39.234,203.349 39.019,203.349 38.756 C 203.349 38.493,203.011 38.278,202.597 38.278 C 202.184 38.278,201.523 37.955,201.128 37.560 C 200.733 37.165,200.226 36.842,200.000 36.842 C 199.774 36.842,199.267 37.165,198.872 37.560 M207.895 61.356 C 221.746 69.384,225.940 71.807,238.756 79.182 C 245.993 83.347,254.390 88.190,257.416 89.945 C 260.443 91.699,266.041 94.932,269.856 97.129 C 273.672 99.326,279.270 102.568,282.297 104.334 C 285.323 106.099,288.660 108.026,289.713 108.616 C 292.513 110.183,315.588 123.506,326.555 129.887 C 329.187 131.418,332.093 133.095,333.014 133.614 C 333.935 134.133,338.134 136.553,342.344 138.992 C 346.555 141.430,350.861 143.907,351.914 144.495 C 352.967 145.083,354.743 146.098,355.861 146.751 L 357.895 147.938 357.895 239.234 L 357.895 330.531 355.861 331.718 C 354.743 332.371,353.074 333.329,352.153 333.846 C 351.232 334.363,343.481 338.831,334.928 343.774 C 298.709 364.706,292.100 368.518,289.713 369.854 C 288.660 370.443,285.323 372.377,282.297 374.153 C 277.271 377.101,271.307 380.548,254.545 390.191 C 251.256 392.083,246.411 394.879,243.780 396.404 C 231.054 403.780,218.338 411.111,205.383 418.544 L 200.000 421.632 194.378 418.403 C 191.286 416.627,186.065 413.623,182.775 411.727 C 179.486 409.830,173.242 406.234,168.900 403.734 C 164.557 401.234,158.906 397.972,156.340 396.484 C 144.707 389.741,133.109 383.044,122.249 376.799 C 117.775 374.227,113.900 371.964,113.636 371.771 C 113.373 371.578,112.083 370.828,110.770 370.105 C 108.461 368.833,101.195 364.654,84.689 355.102 C 73.088 348.388,57.211 339.220,49.163 334.587 L 42.105 330.524 42.105 239.239 L 42.105 147.955 46.292 145.558 C 52.678 141.901,68.081 133.013,73.445 129.889 C 85.146 123.075,107.796 110.005,110.838 108.311 C 112.114 107.601,115.419 105.694,118.182 104.072 C 120.945 102.451,126.328 99.327,130.144 97.130 C 133.959 94.933,139.557 91.703,142.584 89.952 C 145.610 88.202,151.208 84.972,155.024 82.775 C 158.840 80.578,164.438 77.349,167.464 75.598 C 170.490 73.848,175.981 70.679,179.665 68.556 C 183.349 66.433,189.377 62.948,193.059 60.811 C 196.906 58.578,200.062 57.042,200.476 57.199 C 200.872 57.350,204.211 59.220,207.895 61.356 M165.550 159.091 L 165.550 202.392 122.249 202.392 L 78.947 202.392 78.947 241.388 L 78.947 280.383 105.569 280.383 L 132.190 280.383 165.736 255.162 C 184.187 241.291,209.337 222.397,221.626 213.177 L 243.970 196.411 243.995 156.100 L 244.019 115.789 204.785 115.789 L 165.550 115.789 165.550 159.091 M267.010 204.631 C 268.707 205.862,273.325 209.267,277.273 212.197 C 288.540 220.561,302.074 230.614,314.992 240.213 C 321.527 245.070,327.717 249.647,328.748 250.385 L 330.622 251.727 330.622 227.060 L 330.622 202.392 297.273 202.392 L 263.923 202.392 267.010 204.631 M231.467 240.020 C 222.532 243.114,219.861 254.868,226.623 261.335 C 230.049 264.611,235.183 265.905,239.283 264.524 C 242.118 263.569,242.171 263.381,240.522 260.140 C 238.278 255.728,238.279 249.119,240.525 244.377 L 242.056 241.147 240.657 240.424 C 238.482 239.299,234.104 239.107,231.467 240.020 M255.263 239.427 C 255.000 239.520,253.870 239.873,252.751 240.210 C 250.500 240.889,250.376 241.140,251.470 242.808 C 254.622 247.618,254.620 257.318,251.466 261.490 C 250.318 263.009,250.577 263.498,252.956 264.309 C 267.533 269.276,276.815 248.388,263.300 241.032 C 261.161 239.869,256.589 238.955,255.263 239.427 M245.282 247.342 C 243.754 251.159,244.928 260.062,246.722 258.268 C 247.948 257.042,248.586 252.452,247.950 249.424 C 247.126 245.494,246.284 244.837,245.282 247.342 " stroke="none" fill="#034419" fill-rule="evenodd"></path>
<path id="path3" d="M249.247 204.239 C 248.345 204.969,240.072 211.130,230.861 217.930 C 221.651 224.729,211.423 232.287,208.134 234.725 C 204.844 237.162,197.391 242.673,191.571 246.971 C 173.493 260.320,161.290 269.339,153.855 274.847 L 146.704 280.144 156.127 280.273 L 165.550 280.403 165.550 323.694 L 165.550 366.986 204.785 366.986 L 244.019 366.986 244.019 323.684 L 244.019 280.383 287.321 280.383 L 330.622 280.383 330.606 271.411 L 330.590 262.440 292.493 233.971 C 271.540 218.313,253.606 204.920,252.641 204.207 L 250.886 202.912 249.247 204.239 M243.393 235.660 L 246.314 237.109 249.114 235.660 C 255.377 232.418,264.552 233.860,269.775 238.907 C 284.957 253.578,267.572 278.088,248.779 268.507 L 246.122 267.153 244.473 268.192 C 237.771 272.416,227.392 270.833,222.059 264.775 C 208.753 249.659,225.512 226.789,243.393 235.660 " stroke="none" fill="#066a19" fill-rule="evenodd"></path>
<path id="path4" d="M185.048 115.670 C 195.903 115.741,213.666 115.741,224.522 115.670 C 235.377 115.598,226.495 115.539,204.785 115.539 C 183.074 115.539,174.193 115.598,185.048 115.670 " stroke="none" fill="#3c6546" fill-rule="evenodd"></path>
<path id="path5" d="M100.323 202.273 C 112.211 202.344,131.804 202.344,143.863 202.273 C 155.923 202.201,146.196 202.143,122.249 202.143 C 98.301 202.143,88.435 202.201,100.323 202.273 M280.263 202.273 C 289.539 202.345,304.719 202.345,313.995 202.273 C 323.272 202.200,315.682 202.140,297.129 202.140 C 278.577 202.140,270.987 202.200,280.263 202.273 M275.231 252.153 C 275.231 253.074,275.329 253.451,275.449 252.990 C 275.570 252.530,275.570 251.776,275.449 251.316 C 275.329 250.855,275.231 251.232,275.231 252.153 M92.259 280.741 C 99.712 280.816,111.769 280.816,119.053 280.741 C 126.337 280.667,120.239 280.606,105.502 280.606 C 90.766 280.606,84.806 280.667,92.259 280.741 M150.863 280.740 C 153.707 280.825,158.228 280.824,160.911 280.739 C 163.594 280.654,161.268 280.585,155.742 280.585 C 150.215 280.586,148.020 280.655,150.863 280.740 M265.394 280.741 C 277.283 280.813,296.876 280.813,308.935 280.742 C 320.995 280.670,311.268 280.612,287.321 280.612 C 263.373 280.612,253.506 280.670,265.394 280.741 " stroke="none" fill="#87a28e" fill-rule="evenodd"></path>
<path id="path6" d="M165.301 158.612 C 165.301 182.560,165.359 192.286,165.431 180.227 C 165.502 168.168,165.502 148.574,165.430 136.686 C 165.359 124.798,165.301 134.665,165.301 158.612 M244.019 156.077 C 243.888 178.629,243.943 196.919,244.141 196.720 C 244.340 196.521,244.448 178.069,244.381 155.715 L 244.258 115.072 244.019 156.077 M78.697 241.388 C 78.697 263.230,78.756 272.235,78.828 261.399 C 78.899 250.564,78.899 232.693,78.828 221.687 C 78.756 210.680,78.697 219.545,78.697 241.388 M233.852 234.317 C 234.707 234.424,236.106 234.424,236.962 234.317 C 237.817 234.211,237.117 234.124,235.407 234.124 C 233.696 234.124,232.996 234.211,233.852 234.317 M222.462 239.593 L 220.813 241.388 222.608 239.739 C 223.594 238.832,224.402 238.024,224.402 237.944 C 224.402 237.579,223.997 237.923,222.462 239.593 M217.368 252.153 C 217.368 253.600,217.458 254.193,217.568 253.469 C 217.677 252.745,217.677 251.561,217.568 250.837 C 217.458 250.114,217.368 250.706,217.368 252.153 M238.867 252.153 C 238.867 253.074,238.965 253.451,239.086 252.990 C 239.206 252.530,239.206 251.776,239.086 251.316 C 238.965 250.855,238.867 251.232,238.867 252.153 M165.301 324.163 C 165.301 348.110,165.359 357.837,165.431 345.777 C 165.502 333.718,165.502 314.125,165.430 302.237 C 165.359 290.349,165.301 300.215,165.301 324.163 M244.248 323.923 C 244.248 347.739,244.307 357.482,244.378 345.574 C 244.449 333.666,244.449 314.181,244.378 302.273 C 244.307 290.365,244.248 300.108,244.248 323.923 " stroke="none" fill="#e2e8e4" fill-rule="evenodd">
</path>
</g>
</svg>
